{
  "accessors": [
    {
      "bufferView": 2,
      "componentType": 5126,
      "count": 35701,
      "max": [
        14.3701171875,
        14.5938720703125,
        18.943971633911133
      ],
      "min": [
        -2.55908203125,
        1.3354190587997437,
        -34.184669494628906
      ],
      "type": "VEC3"
    },
    {
      "bufferView": 2,
      "byteOffset": 428412,
      "componentType": 5126,
      "count": 35701,
      "max": [
        1.0,
        1.0,
        1.0
      ],
      "min": [
        -1.0,
        -1.0,
        -1.0
      ],
      "type": "VEC3"
    },
    {
      "bufferView": 1,
      "componentType": 5126,
      "count": 35701,
      "max": [
        0.9943490028381348,
        0.9954710006713867
      ],
      "min": [
        0.0024979999288916588,
        0.0024979999288916588
      ],
      "type": "VEC2"
    },
    {
      "bufferView": 0,
      "componentType": 5125,
      "count": 161226,
      "type": "SCALAR"
    },
    {
      "bufferView": 2,
      "byteOffset": 856824,
      "componentType": 5126,
      "count": 12824,
      "max": [
        -6.176636219024658,
        14.77313232421875,
        -15.523335456848145
      ],
      "min": [
        -16.7623291015625,
        4.140227794647217,
        -34.18218231201172
      ],
      "type": "VEC3"
    },
    {
      "bufferView": 2,
      "byteOffset": 1010712,
      "componentType": 5126,
      "count": 12824,
      "max": [
        0.9999969005584717,
        1.0,
        0.999999463558197
      ],
      "min": [
        -0.9999969005584717,
        -1.0,
        -1.0
      ],
      "type": "VEC3"
    },
    {
      "bufferView": 1,
      "byteOffset": 285608,
      "componentType": 5126,
      "count": 12824,
      "max": [
        0.9925010204315186,
        0.9954710006713867
      ],
      "min": [
        0.0053460001945495605,
        0.6806169748306274
      ],
      "type": "VEC2"
    },
    {
      "bufferView": 0,
      "byteOffset": 644904,
      "componentType": 5125,
      "count": 64638,
      "type": "SCALAR"
    }
  ],
  "asset": {
    "extras": {
      "author": "Francesco Coldesina (https://sketchfab.com/topfrank2013)",
      "license": "CC-BY-4.0 (http://creativecommons.org/licenses/by/4.0/)",
      "source": "https://sketchfab.com/3d-models/water-dispenser-df90a2274cea4cb2b203046397c2b506",
      "title": "Water Dispenser"
    },
    "generator": "Sketchfab-12.65.0",
    "version": "2.0"
  },
  "bufferViews": [
    {
      "buffer": 0,
      "byteLength": 903456,
      "name": "floatBufferViews",
      "target": 34963
    },
    {
      "buffer": 0,
      "byteLength": 388200,
      "byteOffset": 903456,
      "byteStride": 8,
      "name": "floatBufferViews",
      "target": 34962
    },
    {
      "buffer": 0,
      "byteLength": 1164600,
      "byteOffset": 1291656,
      "byteStride": 12,
      "name": "floatBufferViews",
      "target": 34962
    }
  ],
  "buffers": [
    {
      "byteLength": 2456256,
      "uri": "scene.bin"
    }
  ],
  "extensionsRequired": [
    "KHR_materials_pbrSpecularGlossiness"
  ],
  "extensionsUsed": [
    "KHR_materials_pbrSpecularGlossiness"
  ],
  "images": [
    {
      "uri": "textures/DispenserWater01_diffuse.png"
    },
    {
      "uri": "textures/DispenserWater01_specularGlossiness.png"
    },
    {
      "uri": "textures/DispenserWater01_occlusion.png"
    }
  ],
  "materials": [
    {
      "alphaMode": "BLEND",
      "doubleSided": true,
      "extensions": {
        "KHR_materials_pbrSpecularGlossiness": {
          "diffuseFactor": [
            1.0,
            1.0,
            1.0,
            1.0
          ],
          "diffuseTexture": {
            "index": 0
          },
          "glossinessFactor": 1.0,
          "specularFactor": [
            1.0,
            1.0,
            1.0
          ],
          "specularGlossinessTexture": {
            "index": 1
          }
        }
      },
      "name": "DispenserWater01",
      "occlusionTexture": {
        "index": 2
      }
    }
  ],
  "meshes": [
    {
      "name": "Object_0",
      "primitives": [
        {
          "attributes": {
            "NORMAL": 1,
            "POSITION": 0,
            "TEXCOORD_0": 2
          },
          "indices": 3,
          "material": 0,
          "mode": 4
        }
      ]
    },
    {
      "name": "Object_1",
      "primitives": [
        {
          "attributes": {
            "NORMAL": 5,
            "POSITION": 4,
            "TEXCOORD_0": 6
          },
          "indices": 7,
          "material": 0,
          "mode": 4
        }
      ]
    }
  ],
  "nodes": [
    {
      "children": [
        1
      ],
      "matrix": [
        1.0,
        0.0,
        0.0,
        0.0,
        0.0,
        2.220446049250313e-16,
        -1.0,
        0.0,
        0.0,
        1.0,
        2.220446049250313e-16,
        0.0,
        0.0,
        0.0,
        0.0,
        1.0
      ],
      "name": "Sketchfab_model"
    },
    {
      "children": [
        2,
        3
      ],
      "name": "Water Dispenser.obj.cleaner.materialmerger.gles"
    },
    {
      "mesh": 0,
      "name": "Object_2"
    },
    {
      "mesh": 1,
      "name": "Object_3"
    }
  ],
  "samplers": [
    {
      "magFilter": 9729,
      "minFilter": 9987,
      "wrapS": 10497,
      "wrapT": 10497
    }
  ],
  "scene": 0,
  "scenes": [
    {
      "name": "Sketchfab_Scene",
      "nodes": [
        0
      ]
    }
  ],
  "textures": [
    {
      "sampler": 0,
      "source": 0
    },
    {
      "sampler": 0,
      "source": 1
    },
    {
      "sampler": 0,
      "source": 2
    }
  ]
}
